simulation
nRows=42
nColumns=15
endheader
time  TH_x TH_y TH_z SC_y  SC_z  SC_x  AC_y  AC_z  AC_x  GH_y  GH_z  GH_yy  EL_x  PS_y
0.000000  0.000000  0.000000  0.000000  -34.882928  -3.787356  -15.000000  62.862441  25.584792  1.820548  -32.277054  19.960067  52.252448  17.780372  112.379954
0.000056  0.000000  0.000000  0.000000  -34.882928  -3.787356  -11.578947  63.551107  22.530786  0.131919  -32.277054  19.960067  52.252448  17.780372  112.379954
0.000112  0.000000  0.000000  0.000000  -34.882928  -3.787356  -8.157895  64.130100  19.459932  -1.483383  -32.277054  19.960067  52.252448  17.780372  112.379954
0.000167  0.000000  0.000000  0.000000  -34.882928  -3.787356  -4.736842  64.608720  16.375307  -3.038465  -32.277054  19.960067  52.252448  17.780372  112.379954
0.000223  0.000000  0.000000  0.000000  -34.882928  -3.787356  -1.315789  64.994414  13.279622  -4.544985  -32.277054  19.960067  52.252448  17.780372  112.379954
0.000279  0.000000  0.000000  0.000000  -34.882928  -3.787356  2.105263  65.293021  10.175305  -6.013483  -32.277054  19.960067  52.252448  17.780372  112.379954
0.000335  0.000000  0.000000  0.000000  -34.882928  -3.787356  5.526316  65.508962  7.064570  -7.453641  -32.277054  19.960067  52.252448  17.780372  112.379954
0.000391  0.000000  0.000000  0.000000  -34.882928  -3.787356  8.947368  65.645380  3.949476  -8.874518  -32.277054  19.960067  52.252448  17.780372  112.379954
0.000446  0.000000  0.000000  0.000000  -34.882928  -3.787356  12.368421  65.704230  0.831980  -10.284759  -32.277054  19.960067  52.252448  17.780372  112.379954
0.000502  0.000000  0.000000  0.000000  -34.882928  -3.787356  15.789474  65.686355  -2.286019  -11.692763  -32.277054  19.960067  52.252448  17.780372  112.379954
0.000558  0.000000  0.000000  0.000000  -34.882928  -3.787356  19.210526  65.591503  -5.402634  -13.106907  -32.277054  19.960067  52.252448  17.780372  112.379954
0.000614  0.000000  0.000000  0.000000  -34.882928  -3.787356  22.631579  65.418311  -8.515940  -14.535687  -32.277054  19.960067  52.252448  17.780372  112.379954
0.000670  0.000000  0.000000  0.000000  -34.882928  -3.787356  26.052632  65.164289  -11.623950  -15.987894  -32.277054  19.960067  52.252448  17.780372  112.379954
0.000725  0.000000  0.000000  0.000000  -34.882928  -3.787356  29.473684  64.825700  -14.724528  -17.472872  -32.277054  19.960067  52.252448  17.780372  112.379954
0.000781  0.000000  0.000000  0.000000  -34.882928  -3.787356  32.894737  64.397489  -17.815373  -19.000666  -32.277054  19.960067  52.252448  17.780372  112.379954
0.000837  0.000000  0.000000  0.000000  -34.882928  -3.787356  36.315789  63.873092  -20.893933  -20.582304  -32.277054  19.960067  52.252448  17.780372  112.379954
0.000893  0.000000  0.000000  0.000000  -34.882928  -3.787356  39.736842  63.244233  -23.957339  -22.230073  -32.277054  19.960067  52.252448  17.780372  112.379954
0.000949  0.000000  0.000000  0.000000  -34.882928  -3.787356  43.157895  62.500644  -27.002306  -23.957859  -32.277054  19.960067  52.252448  17.780372  112.379954
0.001005  0.000000  0.000000  0.000000  -34.882928  -3.787356  46.578947  61.629715  -30.025024  -25.781547  -32.277054  19.960067  52.252448  17.780372  112.379954
0.001060  0.000000  0.000000  0.000000  -34.882928  -3.787356  50.000000  60.616054  -33.021020  -27.719502  -32.277054  19.960067  52.252448  17.780372  112.379954
0.001116  0.000000  0.000000  0.000000  -25.538184  10.312031  -15.000000  62.829575  10.904874  1.619724  -34.370050  14.747698  56.650320  32.346203  129.185829
0.001172  0.000000  0.000000  0.000000  -25.538184  10.312031  -11.578947  63.086615  7.857635  0.043471  -34.370050  14.747698  56.650320  32.346203  129.185829
0.001228  0.000000  0.000000  0.000000  -25.538184  10.312031  -8.157895  63.257958  4.804616  -1.509778  -34.370050  14.747698  56.650320  32.346203  129.185829
0.001284  0.000000  0.000000  0.000000  -25.538184  10.312031  -4.736842  63.345991  1.748103  -3.049145  -34.370050  14.747698  56.650320  32.346203  129.185829
0.001339  0.000000  0.000000  0.000000  -25.538184  10.312031  -1.315789  63.351858  -1.309661  -4.583508  -34.370050  14.747698  56.650320  32.346203  129.185829
0.001395  0.000000  0.000000  0.000000  -25.538184  10.312031  2.105263  63.275669  -4.366485  -6.121622  -34.370050  14.747698  56.650320  32.346203  129.185829
0.001451  0.000000  0.000000  0.000000  -25.538184  10.312031  5.526316  63.116382  -7.420148  -7.672324  -34.370050  14.747698  56.650320  32.346203  129.185829
0.001507  0.000000  0.000000  0.000000  -25.538184  10.312031  8.947368  62.871812  -10.468360  -9.244708  -34.370050  14.747698  56.650320  32.346203  129.185829
0.001563  0.000000  0.000000  0.000000  -25.538184  10.312031  12.368421  62.538579  -13.508711  -10.848293  -34.370050  14.747698  56.650320  32.346203  129.185829
0.001618  0.000000  0.000000  0.000000  -25.538184  10.312031  15.789474  62.112007  -16.538607  -12.493238  -34.370050  14.747698  56.650320  32.346203  129.185829
0.001674  0.000000  0.000000  0.000000  -25.538184  10.312031  19.210526  61.585965  -19.555207  -14.190605  -34.370050  14.747698  56.650320  32.346203  129.185829
0.001730  0.000000  0.000000  0.000000  -25.538184  10.312031  22.631579  60.952700  -22.555337  -15.952535  -34.370050  14.747698  56.650320  32.346203  129.185829
0.001786  0.000000  0.000000  0.000000  -25.538184  10.312031  26.052632  60.202637  -25.535421  -17.792595  -34.370050  14.747698  56.650320  32.346203  129.185829
0.001842  0.000000  0.000000  0.000000  -25.538184  10.312031  29.473684  59.324067  -28.491370  -19.726129  -34.370050  14.747698  56.650320  32.346203  129.185829
0.001897  0.000000  0.000000  0.000000  -25.538184  10.312031  32.894737  58.302828  -31.418381  -21.770570  -34.370050  14.747698  56.650320  32.346203  129.185829
0.001953  0.000000  0.000000  0.000000  -25.538184  10.312031  36.315789  57.121841  -34.310858  -23.946000  -34.370050  14.747698  56.650320  32.346203  129.185829
0.002009  0.000000  0.000000  0.000000  -25.538184  10.312031  39.736842  55.760662  -37.162148  -26.275619  -34.370050  14.747698  56.650320  32.346203  129.185829
0.002065  0.000000  0.000000  0.000000  -25.538184  10.312031  43.157895  54.194918  -39.964275  -28.786336  -34.370050  14.747698  56.650320  32.346203  129.185829
0.002121  0.000000  0.000000  0.000000  -25.538184  10.312031  46.578947  52.395672  -42.707656  -31.509428  -34.370050  14.747698  56.650320  32.346203  129.185829
0.002176  0.000000  0.000000  0.000000  -25.538184  10.312031  50.000000  50.328971  -45.380619  -34.481032  -34.370050  14.747698  56.650320  32.346203  129.185829
0.002232  0.000000  0.000000  0.000000  -21.477980  3.795916  -15.000000  57.354411  20.383637  -5.963476  -1.432318  5.693678  52.074007  17.983455  117.369692
0.002288  0.000000  0.000000  0.000000  -21.477980  3.795916  -11.578947  57.982386  17.492673  -7.897625  -1.432318  5.693678  52.074007  17.983455  117.369692
